<?xml version="1.0" encoding="UTF-8"?>
<svg width="9px" height="10px" viewBox="0 0 9 10" version="1.1" xmlns="http://www.w3.org/2000/svg" xmlns:xlink="http://www.w3.org/1999/xlink">
    <title>Group</title>
    <g id="Page-1" stroke="none" stroke-width="1" fill="none" fill-rule="evenodd">
        <g id="IPhone-XR-Copy-2" transform="translate(-30.000000, -1275.000000)" fill="#FFFFFF" fill-rule="nonzero">
            <g id="Group-6" transform="translate(15.000000, 1248.000000)">
                <g id="Group" transform="translate(15.000000, 27.000000)">
                    <path d="M8.93514847,1.73329388 C8.86764172,1.50851514 8.82263723,1.38363806 8.82263723,1.38363806 C8.74950492,1.15136669 8.56386138,1.15136669 8.28820884,1.11140602 L6.79462214,0.944070731 C6.60897859,0.916597773 6.60897859,0.916597773 6.53584629,0.774237901 C6.29113434,0.284719744 6.21518926,0 5.94797506,0 L3.05081065,0 C2.78359646,0 2.71046415,0.284719744 2.46575221,0.776735443 C2.3926199,0.916597773 2.3926199,0.916597773 2.20697636,0.946568273 L0.710576873,1.11390356 C0.437737118,1.15386423 0.240842449,1.1763421 0.167710144,1.40861347 C0.167710144,1.40861347 0.133956772,1.51101268 0.0636372475,1.73329388 C-0.026371744,2.03050133 -0.0629378968,1.99803329 0.246468011,1.99803329 L8.7523177,1.99803329 C9.06172361,2.00053083 9.02797024,2.03050133 8.93514847,1.73329388 Z" id="Path"></path>
                    <path d="M7.58312353,3 L1.41687647,3 C1.00212889,3 0.982141058,3.05659684 1.00712585,3.37816979 L1.47434149,9.61925763 C1.51431716,9.93568541 1.54429891,10 1.91157538,10 L7.08842462,10 C7.45570109,10 7.48568284,9.93568541 7.52565851,9.61925763 L7.99287415,3.37816979 C8.01785894,3.05402426 7.99787111,3 7.58312353,3 Z" id="Path"></path>
                </g>
            </g>
        </g>
    </g>
</svg>