<?xml version="1.0" encoding="UTF-8"?>
<svg width="384px" height="90px" viewBox="0 0 384 90" version="1.1" xmlns="http://www.w3.org/2000/svg" xmlns:xlink="http://www.w3.org/1999/xlink">
    <title>Group 4</title>
    <g id="Page-1" stroke="none" stroke-width="1" fill="none" fill-rule="evenodd">
        <g id="IPhone-XR-Copy-2" transform="translate(-15.000000, -1019.000000)" fill="#000000">
            <g id="Group-4" transform="translate(15.000000, 1019.000000)">
                <rect id="Rectangle" x="0" y="0" width="4" height="90"></rect>
                <rect id="Rectangle-Copy-55" x="351" y="0" width="4" height="90"></rect>
                <rect id="Rectangle-Copy-64" x="374" y="0" width="4" height="90"></rect>
                <rect id="Rectangle-Copy-4" x="18" y="0" width="4" height="90"></rect>
                <rect id="Rectangle-Copy-7" x="17" y="0" width="4" height="90"></rect>
                <rect id="Rectangle-Copy-50" x="267" y="0" width="4" height="90"></rect>
                <rect id="Rectangle-Copy-38" x="195" y="0" width="4" height="90"></rect>
                <rect id="Rectangle-Copy-11" x="53" y="0" width="4" height="90"></rect>
                <rect id="Rectangle-Copy-39" x="222" y="0" width="4" height="90"></rect>
                <rect id="Rectangle-Copy-24" x="132" y="0" width="4" height="90"></rect>
                <rect id="Rectangle-Copy-9" x="28" y="0" width="3" height="90"></rect>
                <rect id="Rectangle-Copy-51" x="278" y="0" width="3" height="90"></rect>
                <rect id="Rectangle-Copy-40" x="206" y="0" width="3" height="90"></rect>
                <rect id="Rectangle-Copy-25" x="116" y="0" width="3" height="90"></rect>
                <rect id="Rectangle-Copy-12" x="64" y="0" width="3" height="90"></rect>
                <rect id="Rectangle-Copy-41" x="233" y="0" width="3" height="90"></rect>
                <rect id="Rectangle-Copy-26" x="143" y="0" width="3" height="90"></rect>
                <rect id="Rectangle-Copy-54" x="297" y="0" width="3" height="90"></rect>
                <rect id="Rectangle-Copy-10" x="34" y="0" width="6" height="90"></rect>
                <rect id="Rectangle-Copy-52" x="284" y="0" width="6" height="90"></rect>
                <rect id="Rectangle-Copy-13" x="70" y="0" width="6" height="90"></rect>
                <rect id="Rectangle-Copy-42" x="239" y="0" width="6" height="90"></rect>
                <rect id="Rectangle-Copy-27" x="149" y="0" width="6" height="90"></rect>
                <rect id="Rectangle-Copy-56" x="303" y="0" width="6" height="90"></rect>
                <rect id="Rectangle-Copy-18" x="84" y="0" width="6" height="90"></rect>
                <rect id="Rectangle-Copy-43" x="253" y="0" width="6" height="90"></rect>
                <rect id="Rectangle-Copy-28" x="163" y="0" width="6" height="90"></rect>
                <rect id="Rectangle-Copy-57" x="317" y="0" width="6" height="90"></rect>
                <rect id="Rectangle-Copy-65" x="358" y="0" width="6" height="90"></rect>
                <rect id="Rectangle-Copy-61" x="331" y="0" width="6" height="90"></rect>
                <rect id="Rectangle-Copy-5" x="7" y="0" width="2" height="90"></rect>
                <rect id="Rectangle-Copy-14" x="43" y="0" width="2" height="90"></rect>
                <rect id="Rectangle-Copy-44" x="212" y="0" width="2" height="90"></rect>
                <rect id="Rectangle-Copy-29" x="122" y="0" width="2" height="90"></rect>
                <rect id="Rectangle-Copy-6" x="12" y="0" width="2" height="90"></rect>
                <rect id="Rectangle-Copy-21" x="102" y="0" width="2" height="90"></rect>
                <rect id="Rectangle-Copy-30" x="181" y="0" width="2" height="90"></rect>
                <rect id="Rectangle-Copy-15" x="48" y="0" width="2" height="90"></rect>
                <rect id="Rectangle-Copy-45" x="217" y="0" width="2" height="90"></rect>
                <rect id="Rectangle-Copy-31" x="127" y="0" width="2" height="90"></rect>
                <rect id="Rectangle-Copy-19" x="93" y="0" width="2" height="90"></rect>
                <rect id="Rectangle-Copy-46" x="262" y="0" width="2" height="90"></rect>
                <rect id="Rectangle-Copy-32" x="172" y="0" width="2" height="90"></rect>
                <rect id="Rectangle-Copy-58" x="326" y="0" width="2" height="90"></rect>
                <rect id="Rectangle-Copy-66" x="368" y="0" width="2" height="90"></rect>
                <rect id="Rectangle-Copy-62" x="340" y="0" width="2" height="90"></rect>
                <rect id="Rectangle-Copy-67" x="382" y="0" width="2" height="90"></rect>
                <rect id="Rectangle-Copy-63" x="345" y="0" width="2" height="90"></rect>
                <rect id="Rectangle-Copy-23" x="111" y="0" width="2" height="90"></rect>
                <rect id="Rectangle-Copy-33" x="190" y="0" width="2" height="90"></rect>
                <rect id="Rectangle-Copy-17" x="79" y="0" width="2" height="90"></rect>
                <rect id="Rectangle-Copy-47" x="248" y="0" width="2" height="90"></rect>
                <rect id="Rectangle-Copy-34" x="158" y="0" width="2" height="90"></rect>
                <rect id="Rectangle-Copy-59" x="312" y="0" width="2" height="90"></rect>
                <rect id="Rectangle-Copy-8" x="24" y="0" width="1" height="90"></rect>
                <rect id="Rectangle-Copy-53" x="274" y="0" width="1" height="90"></rect>
                <rect id="Rectangle-Copy-48" x="202" y="0" width="1" height="90"></rect>
                <rect id="Rectangle-Copy-22" x="107" y="0" width="1" height="90"></rect>
                <rect id="Rectangle-Copy-35" x="186" y="0" width="1" height="90"></rect>
                <rect id="Rectangle-Copy-16" x="60" y="0" width="1" height="90"></rect>
                <rect id="Rectangle-Copy-49" x="229" y="0" width="1" height="90"></rect>
                <rect id="Rectangle-Copy-36" x="139" y="0" width="1" height="90"></rect>
                <rect id="Rectangle-Copy-60" x="293" y="0" width="1" height="90"></rect>
                <rect id="Rectangle-Copy-20" x="98" y="0" width="1" height="90"></rect>
                <rect id="Rectangle-Copy-37" x="177" y="0" width="1" height="90"></rect>
            </g>
        </g>
    </g>
</svg>