<?xml version="1.0" encoding="UTF-8"?>
<svg width="388px" height="112px" viewBox="0 0 388 112" version="1.1" xmlns="http://www.w3.org/2000/svg" xmlns:xlink="http://www.w3.org/1999/xlink">
    <title>3x</title>
    <g id="Page-1" stroke="none" stroke-width="1" fill="none" fill-rule="evenodd">
        <g id="IPhone-XR-Copy-2" transform="translate(-12.000000, -141.000000)">
            <g id="3x" transform="translate(12.000000, 141.000000)">
                <rect id="Rectangle" x="0" y="0" width="388" height="112"></rect>
                <g id="Group" transform="translate(4.000000, 2.000000)">
                    <g id="Path" stroke="#000000" stroke-width="0.799286414">
                        <path d="M13.5714976,67.0236409 C10.8160484,68.0129325 -0.0478477518,72.1593376 0,76.0545805 C0.0481649601,79.9686481 7.29365437,82.1889812 11.6680167,82.2840958 C12.3586141,82.2994529 91.5187816,82.49959 119.575894,82.6021355 C157.337809,82.7398536 165.963337,89.1105548 172.971686,89.1016378 C187.825316,89.0833085 227.137894,91.0950828 253.016212,89.6663812 C275.384282,88.4313767 285.11222,83.8812296 291.616214,82.1815503 C305.644481,78.5156725 324.933782,73.4934199 334.724765,70.7910734 C344.515748,68.0882316 370.398114,58.5628939 372.379678,57.2610119 C374.360663,55.9586344 372.379678,53.936457 372.379678,53.936457 L373.873081,50.0981838 L381,0.591494343 L359.797386,0 C359.797386,0 356.366377,0.99721785 354.646246,3.7302784 C352.926114,6.46284355 331.857108,33.7716519 331.857108,33.7716519 L329.590977,36.2644488 C329.590977,36.2644488 320.942892,39.9912595 314.377011,39.9466745 C307.811129,39.9020895 303.466843,40.7100688 303.466843,40.7100688 C303.466843,40.7100688 301.623515,41.487334 300.43261,42.1967309 C299.242284,42.9056324 291.977708,45.4499498 291.977708,45.4499498 L155.50547,43.4896959 L91.424504,43.1681885 L69.7661184,44.539425 C69.7661184,44.539425 58.7767116,46.0919738 55.2473769,47.8724015 C51.7180421,49.6528292 33.0406777,60.4116852 30.7699192,61.1899412 C26.860004,62.5304636 16.6884404,65.9040619 13.5714976,67.0236409 Z"></path>
                    </g>
                    <g transform="translate(46.287044, 47.686913)" id="Path" stroke="#444444">
                        <g transform="translate(73.289455, 2.170342)" stroke-width="0.778500602">
                            <path d="M6.36225735,1.59824937 C6.36225735,0.716412222 5.64934426,0 4.77201042,0 L1.59088175,0 C0.712913091,0 0,0.716412222 0,1.59824937 L0,8.08715467 C0,8.96899182 0.712913091,9.68540404 1.59088175,9.68540404 L4.77201042,9.68540404 C5.64934426,9.68540404 6.36225735,8.96899182 6.36225735,8.08715467 L6.36225735,1.59824937 Z"></path>
                        </g>
                        <g transform="translate(95.268280, 2.170342)" stroke-width="0.778500602">
                            <path d="M6.36225735,1.59824937 C6.36225735,0.716412222 5.64934426,0 4.77201042,0 L1.59088175,0 C0.712913091,0 0,0.716412222 0,1.59824937 L0,8.08715467 C0,8.96899182 0.712913091,9.68540404 1.59088175,9.68540404 L4.77201042,9.68540404 C5.64934426,9.68540404 6.36225735,8.96899182 6.36225735,8.08715467 L6.36225735,1.59824937 Z"></path>
                        </g>
                        <g transform="translate(117.247094, 2.170342)" stroke-width="0.778500602">
                            <path d="M6.36225735,1.59824937 C6.36225735,0.716412222 5.64934426,0 4.77201042,0 L1.59088175,0 C0.712913091,0 0,0.716412222 0,1.59824937 L0,8.08715467 C0,8.96899182 0.712913091,9.68540404 1.59088175,9.68540404 L4.77201042,9.68540404 C5.64934426,9.68540404 6.36225735,8.96899182 6.36225735,8.08715467 L6.36225735,1.59824937 Z"></path>
                        </g>
                        <g transform="translate(115.038611, 0.000000)" stroke-width="0.798566378">
                            <path d="M10.7771392,2.34229949 C10.7771392,1.04951422 9.73297617,0 8.44685978,0 L2.33027946,0 C1.04416306,0 0,1.04951422 0,2.34229949 L0,11.6826032 C0,12.9753885 1.04416306,14.0249027 2.33027946,14.0249027 L8.44685978,14.0249027 C9.73297617,14.0249027 10.7771392,12.9753885 10.7771392,11.6826032 L10.7771392,2.34229949 Z"></path>
                        </g>
                        <g transform="translate(47.379700, 1.789867)" stroke-width="0.758135348">
                            <path d="M15.1207806,1.16793803 C15.1207806,0.522739085 14.6002588,0 13.9575276,0 L1.16325303,0 C0.520521784,0 0,0.522739085 0,1.16793803 L0,26.3343522 C0,26.9795512 0.520521784,27.5022903 1.16325303,27.5022903 L13.9575276,27.5022903 C14.6002588,27.5022903 15.1207806,26.9795512 15.1207806,26.3343522 L15.1207806,1.16793803 Z"></path>
                        </g>
                        <g transform="translate(139.225907, 2.170342)" stroke-width="0.778500602">
                            <path d="M6.36225735,1.59824937 C6.36225735,0.716412222 5.64934426,0 4.77201042,0 L1.59088175,0 C0.712913091,0 0,0.716412222 0,1.59824937 L0,8.08715467 C0,8.96899182 0.712913091,9.68540404 1.59088175,9.68540404 L4.77201042,9.68540404 C5.64934426,9.68540404 6.36225735,8.96899182 6.36225735,8.08715467 L6.36225735,1.59824937 Z"></path>
                        </g>
                        <g transform="translate(161.204721, 2.170342)" stroke-width="0.778500602">
                            <path d="M6.36225735,1.59824937 C6.36225735,0.716412222 5.64934426,0 4.77201042,0 L1.59088175,0 C0.712913091,0 0,0.716412222 0,1.59824937 L0,8.08715467 C0,8.96899182 0.712913091,9.68540404 1.59088175,9.68540404 L4.77201042,9.68540404 C5.64934426,9.68540404 6.36225735,8.96899182 6.36225735,8.08715467 L6.36225735,1.59824937 Z"></path>
                        </g>
                        <g transform="translate(0.000000, 1.046632)" stroke-width="0.799286414">
                            <path d="M11.9893776,0 L16.3082145,0.14812128 L7.78911064,8.72627543 L0.774977157,8.48947953 C0.774977157,8.48947953 -0.901196573,8.22097875 0.676650885,7.11130762 C2.25507673,6.00163649 11.9893776,0 11.9893776,0 Z"></path>
                        </g>
                        <g transform="translate(11.818753, 1.792192)" stroke-width="0.799286414">
                            <polygon points="0 7.20493612 7.37620551 7.19205601 10.0420042 0.0277417782 7.29870128 0"></polygon>
                        </g>
                    </g>
                    <g transform="translate(12.669209, 82.302944)" id="Path" stroke="#000000" stroke-width="0.77995683">
                        <polyline points="0 0 0 2.82488587 14.2769746 2.82488587 20.7526271 0.0662763922"></polyline>
                    </g>
                    <g transform="translate(30.377449, 90.824201)" id="Oval" stroke="#000000">
                        <g stroke-width="0.78100504">
                            <ellipse cx="3.87101783" cy="3.89097581" rx="3.87101783" ry="3.89097581"></ellipse>
                        </g>
                        <g transform="translate(1.740475, 1.749393)" stroke-width="0.78019862">
                            <ellipse cx="2.13066622" cy="2.14165139" rx="2.13066622" ry="2.14165139"></ellipse>
                        </g>
                    </g>
                    <g transform="translate(236.311764, 95.969581)" id="Oval" stroke="#000000">
                        <g stroke-width="0.780097149">
                            <ellipse cx="5.9843613" cy="6.01520948" rx="5.9843613" ry="6.01520948"></ellipse>
                        </g>
                        <g transform="translate(2.029047, 2.039418)" stroke-width="0.779911075">
                            <ellipse cx="3.95549449" cy="3.97588427" rx="3.95549449" ry="3.97588427"></ellipse>
                        </g>
                    </g>
                    <g transform="translate(314.311959, 39.194237)" id="Path" stroke="#000000" stroke-width="0.77995683">
                        <line x1="0" y1="7.11889844" x2="7.08238348" y2="0"></line>
                    </g>
                    <g transform="translate(306.707868, 50.354833)" id="Path" stroke="#000000" stroke-width="0.77995683">
                        <line x1="0" y1="0" x2="65.7079767" y2="3.55043796"></line>
                    </g>
                    <g transform="translate(34.255781, 84.944736)" id="Path" stroke="#000000" stroke-width="0.801069088">
                        <line x1="0" y1="5.81581392" x2="1" y2="0"></line>
                    </g>
                    <g transform="translate(35.316586, 84.944736)" id="Path" stroke="#000000" stroke-width="0.801069088">
                        <line x1="0" y1="5.98747118" x2="1" y2="0"></line>
                    </g>
                    <g transform="translate(38.718776, 82.646483)" id="Path" stroke="#000000" stroke-width="0.780248568">
                        <line x1="2.08430962" y1="2.48140067" x2="0" y2="0"></line>
                    </g>
                    <g transform="translate(34.734839, 84.944116)" id="Path" stroke="#000000" stroke-width="0.77995683">
                        <path d="M0.58186017,0 L2.14929661,1.34471312 C2.14929661,1.34471312 3.17015466,2.37141582 3.15743009,3.17080213 C3.14470551,3.97018844 3.06373093,5.33350545 0,7.48109311"></path>
                    </g>
                    <g transform="translate(242.515544, 90.077630)" id="Path" stroke="#000000" stroke-width="0.77995683">
                        <path d="M0.938911569,3.75101125 C0.938911569,3.75101125 1.35816473,0.354055463 0,0"></path>
                    </g>
                    <g transform="translate(235.254438, 90.179050)" id="Path" stroke="#000000" stroke-width="0.821497012">
                        <path d="M8.36987924,3.65897795 L1.55355509,5.24563239 L1.62064831,3.99630459 C1.62064831,3.99630459 1.99139619,0.611252121 0,0"></path>
                    </g>
                    <g transform="translate(243.642421, 93.828879)" id="Path" stroke="#000000" stroke-width="0.77995683">
                        <path d="M0,0 C0,0 0.983603717,2.06038188 0.618776157,2.43245987"></path>
                    </g>
                    <g transform="translate(236.963523, 95.424037)" id="Path" stroke="#000000" stroke-width="0.77995683">
                        <path d="M0,0 C0,0 1.12309661,1.9068997 0.583008749,2.93418378"></path>
                    </g>
                    <g transform="translate(34.735129, 82.398870)" id="Path" stroke="#000000" stroke-width="0.77995683">
                        <polyline points="0 0 0 2.54524601 2.5483856 2.54524601 2.5483856 1.41680323 3.87058475 1.41680323 3.87058475 0"></polyline>
                    </g>
                    <g transform="translate(237.952414, 67.621236)" id="Path" stroke="#000000" stroke-width="0.798043921">
                        <path d="M0,2.38106486 C0,2.38106486 9.51494385,3.04126019 17.6968762,1.59398513 C25.8558257,0.148692643 40.5419347,0 40.5419347,0"></path>
                    </g>
                    <g transform="translate(237.952414, 70.002301)" id="Path" stroke="#000000" stroke-width="0.798043921">
                        <path d="M0,0 C0,0 1.14914781,4.69273981 6.75698911,4.90090951 C12.3418475,5.10709664 36.2900878,4.70463522 38.5654004,4.30613894"></path>
                    </g>
                    <g transform="translate(239.768068, 55.398701)" id="Path" stroke="#000000" stroke-width="0.798043921">
                        <path d="M47.0001454,0 C47.0001454,0 34.1986388,5.41042963 22.017672,4.85927557 C9.83670524,4.30812151 2.27531266,2.79740426 0,2.19470341"></path>
                    </g>
                    <g transform="translate(130.185333, 76.915518)" id="Path" stroke="#000000" stroke-width="0.798043921">
                        <path d="M0,0 C0,0 0.666505729,7.47626609 26.2465359,7.11543861 C51.8495491,6.75461113 44.6788668,3.68559498 58.1238961,1.82594565 C71.5459425,-0.0337036657 79.3831306,0.216099974 91.1504041,0.352897206"></path>
                    </g>
                    <g transform="translate(221.335737, 77.175234)" id="Path" stroke="#000000" stroke-width="0.798043921">
                        <path d="M0,0.0931807229 L8.73352334,0 C8.73352334,0 13.4680123,4.54999487 30.429434,4.72842604 C47.4138386,4.90685722 52.5620207,3.33269777 55.1820777,2.0123071"></path>
                    </g>
                    <g transform="translate(230.069260, 74.958723)" id="Path" stroke="#000000" stroke-width="0.798043921">
                        <path d="M0,2.21651166 C0,2.21651166 7.49244371,0.0693899 14.686109,0"></path>
                    </g>
                    <g transform="translate(130.178304, 66.250853)" id="Path" stroke="#000000" stroke-width="0.798043921">
                        <path d="M0.397738659,11.6440534 C0.397738659,11.6440534 -4.72746056,5.77763303 21.8178538,2.28236464 C48.3401852,-1.21290376 73.8053006,0.333499731 77.9652157,0.383063945"></path>
                    </g>
                    <g transform="translate(250.372793, 23.501787)" fill="#F09C00" id="Path" stroke="#000000" stroke-width="0.799286414">
                        <path d="M2.21141906,1.54802403 C2.21141906,1.54802403 8.77730042,-0.219028162 17.0991733,0.0227216203 C25.4216246,0.264471402 78.9377221,3.40276007 85.799739,8.44928676 C92.661756,13.4958135 87.2613301,20.2435056 85.5620208,21.2258618 C84.1154679,22.0620783 70.207506,26.8064177 51.9755017,28.2262023 C48.7851034,28.4748875 45.4622538,28.6215227 42.0509106,28.6274673 C19.143203,28.66908 2.65620084,24.9774419 1.97717118,23.2564609 C0.749249571,20.1439325 -0.0153817853,15.6993033 0,13.2441559 C0.0245271131,9.43263372 0.123431774,5.61665305 2.21141906,1.54802403 Z"></path>
                    </g>
                    <g transform="translate(276.513897, 55.331294)" id="Path" stroke="#000000" stroke-width="0.798043921">
                        <path d="M9.67974223,28.4994927 C9.67974223,28.4994927 1.88852009,28.5569177 0.624457499,25.3649823 C-0.63960509,22.1730469 -1.07628126,12.8966086 10.4151968,0"></path>
                    </g>
                    <g transform="translate(241.859517, 54.580754)" id="Path" stroke="#000000" stroke-width="0.798043921">
                        <path d="M45.069577,0.750539335 C45.069577,0.750539335 18.9609388,-1.74154936 0,2.35641988"></path>
                    </g>
                    <g transform="translate(157.879795, 56.937174)" id="Path" stroke="#000000" stroke-width="0.798043921">
                        <polyline points="83.9797218 0 34.0147751 14.5005065 0 17.0818108"></polyline>
                    </g>
                    <g transform="translate(188.562041, 58.989133)" id="Path" stroke="#000000" stroke-width="0.798043921">
                        <path d="M0,12.86687 C0,12.86687 1.6777558,17.7955355 8.87142108,17.030264 C16.0421034,16.2649926 57.4803734,0 57.4803734,0"></path>
                    </g>
                    <g transform="translate(326.751389, 59.141106)" id="Path" stroke="#000000" stroke-width="0.77995683">
                        <polyline points="0 13.8232787 38.4924216 9.10195786 41.2235784 0"></polyline>
                    </g>
                    <g transform="translate(352.511715, 5.112474)" id="Path" stroke="#000000" stroke-width="0.77995683">
                        <path d="M0,1.76737046 C0,1.76737046 16.973428,3.4731155 27.8176589,0"></path>
                    </g>
                    <g transform="translate(352.899815, 6.932168)" id="Path" stroke="#000000" stroke-width="0.77995683">
                        <polyline points="6.36980721 46.2085983 0 43.7168385 17.8728242 1.73239319e-15"></polyline>
                    </g>
                    <g transform="translate(356.569698, 6.801360)" id="Path" stroke="#000000" stroke-width="0.77995683">
                        <line x1="0" y1="45.1568966" x2="15.4129322" y2="0"></line>
                    </g>
                </g>
            </g>
        </g>
    </g>
</svg>