<?xml version="1.0" encoding="UTF-8" standalone="no"?>
<!DOCTYPE svg PUBLIC "-//W3C//DTD SVG 1.1//EN" "http://www.w3.org/Graphics/SVG/1.1/DTD/svg11.dtd">
<svg width="100%" height="100%" viewBox="0 0 414 194" version="1.1" xmlns="http://www.w3.org/2000/svg" xmlns:xlink="http://www.w3.org/1999/xlink" xml:space="preserve" xmlns:serif="http://www.serif.com/" style="fill-rule:evenodd;clip-rule:evenodd;stroke-linecap:round;stroke-linejoin:round;stroke-miterlimit:1.5;">
    <g transform="matrix(1,0,0,1,-1196.57,-252.582)">
        <g id="plane" transform="matrix(0.516305,0,0,0.322344,1196.57,252.582)">
            <rect x="0" y="0" width="800" height="600" style="fill:none;"/>
            <clipPath id="_clip1">
                <rect x="0" y="0" width="800" height="600"/>
            </clipPath>
            <g clip-path="url(#_clip1)">
                <g transform="matrix(-1.93684,0,0,4.29001,1446.65,-1414.49)">
                    <g transform="matrix(1,0,0,0.61619,22.9409,222.177)">
                        <path d="M84.725,314.305C79.961,316.302 61.178,324.672 61.261,332.535C61.344,340.436 73.871,344.918 81.434,345.11C82.628,345.141 219.491,345.545 268,345.752C333.288,346.03 348.201,358.89 360.318,358.872C385.999,358.835 453.968,362.896 498.71,360.012C537.383,357.519 554.202,348.334 565.447,344.903C589.701,337.503 623.051,327.365 639.979,321.91C656.907,316.454 701.656,297.226 705.082,294.598C708.507,291.969 705.082,287.887 705.082,287.887L707.664,280.139L719.986,180.204L683.328,179.01C683.328,179.01 677.396,181.023 674.422,186.54C671.448,192.056 635.021,247.182 635.021,247.182L631.103,252.214C631.103,252.214 616.151,259.737 604.799,259.647C593.447,259.557 585.936,261.188 585.936,261.188C585.936,261.188 582.749,262.757 580.69,264.189C578.632,265.62 566.072,270.756 566.072,270.756L330.12,266.799L219.328,266.15L181.882,268.918C181.882,268.918 162.882,272.052 156.78,275.646C150.678,279.24 118.386,300.958 114.46,302.529C107.7,305.235 90.114,312.045 84.725,314.305Z" style="fill:none;stroke:black;stroke-width:1.08px;"/>
                    </g>
                    <g transform="matrix(1,0,0,1,-9.14657,8.19758)">
                        <g transform="matrix(1.09758,0,0,0.800638,41.169,161.931)">
                            <path d="M280.544,282.719C280.544,281.349 279.421,280.236 278.039,280.236L273.028,280.236C271.645,280.236 270.522,281.349 270.522,282.719L270.522,292.8C270.522,294.17 271.645,295.283 273.028,295.283L278.039,295.283C279.421,295.283 280.544,294.17 280.544,292.8L280.544,282.719Z" style="fill:none;stroke:rgb(68,68,68);stroke-width:0.91px;"/>
                        </g>
                        <g transform="matrix(1.09758,0,0,0.800638,79.169,161.931)">
                            <path d="M280.544,282.719C280.544,281.349 279.421,280.236 278.039,280.236L273.028,280.236C271.645,280.236 270.522,281.349 270.522,282.719L270.522,292.8C270.522,294.17 271.645,295.283 273.028,295.283L278.039,295.283C279.421,295.283 280.544,294.17 280.544,292.8L280.544,282.719Z" style="fill:none;stroke:rgb(68,68,68);stroke-width:0.91px;"/>
                        </g>
                        <g transform="matrix(1.85921,0,0,1.15936,-130.687,58.7046)">
                            <path d="M280.544,282.749C280.544,281.362 279.573,280.236 278.377,280.236L272.689,280.236C271.493,280.236 270.522,281.362 270.522,282.749L270.522,292.77C270.522,294.157 271.493,295.283 272.689,295.283L278.377,295.283C279.573,295.283 280.544,294.157 280.544,292.77L280.544,282.749Z" style="fill:none;stroke:rgb(68,68,68);stroke-width:0.58px;"/>
                        </g>
                        <g transform="matrix(1.09758,0,0,0.800638,117.169,161.931)">
                            <path d="M280.544,282.719C280.544,281.349 279.421,280.236 278.039,280.236L273.028,280.236C271.645,280.236 270.522,281.349 270.522,282.719L270.522,292.8C270.522,294.17 271.645,295.283 273.028,295.283L278.039,295.283C279.421,295.283 280.544,294.17 280.544,292.8L280.544,282.719Z" style="fill:none;stroke:rgb(68,68,68);stroke-width:0.91px;"/>
                        </g>
                        <g transform="matrix(1.09758,0,0,0.800638,155.169,161.931)">
                            <path d="M280.544,282.719C280.544,281.349 279.421,280.236 278.039,280.236L273.028,280.236C271.645,280.236 270.522,281.349 270.522,282.719L270.522,292.8C270.522,294.17 271.645,295.283 273.028,295.283L278.039,295.283C279.421,295.283 280.544,294.17 280.544,292.8L280.544,282.719Z" style="fill:none;stroke:rgb(68,68,68);stroke-width:0.91px;"/>
                        </g>
                    </g>
                    <g transform="matrix(1.54594,0,0,1.11793,247.969,77.0836)">
                        <g transform="matrix(0.975335,0,0,0.975335,51.1401,8.13608)">
                            <circle cx="116.784" cy="342.233" r="6.862" style="fill:none;stroke:black;stroke-width:0.66px;"/>
                        </g>
                        <g transform="matrix(0.644669,0,0,0.644669,89.7568,121.301)">
                            <circle cx="116.784" cy="342.233" r="6.862" style="fill:none;stroke:black;stroke-width:1px;"/>
                        </g>
                    </g>
                    <g transform="matrix(1,0,0,0.72314,-9.14657,8.19758)">
                        <path d="M636.774,528.1L649.019,515.855" style="fill:none;stroke:black;stroke-width:1px;"/>
                    </g>
                    <g transform="matrix(1,0,0,0.72314,-9.14657,8.19758)">
                        <path d="M623.627,535.052L737.232,541.159" style="fill:none;stroke:black;stroke-width:1px;"/>
                    </g>
                    <g transform="matrix(1,0,0,0.72314,22.9409,203.031)">
                        <path d="M482.472,340.403C482.472,340.403 483.328,334.56 480.555,333.951" style="fill:none;stroke:black;stroke-width:1px;"/>
                    </g>
                    <g transform="matrix(1,0,0,0.505523,22.9409,275.733)">
                        <path d="M482.472,343.147L470.687,347.051L470.803,343.977C470.803,343.977 471.444,335.648 468.001,334.144" style="fill:none;stroke:black;stroke-width:1.16px;"/>
                    </g>
                    <g transform="matrix(1,0,0,0.72314,22.9722,201.047)">
                        <path d="M482.472,343.147C482.472,343.147 484.122,346.691 483.51,347.331" style="fill:none;stroke:black;stroke-width:1px;"/>
                    </g>
                    <g transform="matrix(1,0,0,0.72314,23.2098,200.208)">
                        <path d="M470.687,347.051C470.687,347.051 472.571,350.331 471.665,352.098" style="fill:none;stroke:black;stroke-width:1px;"/>
                    </g>
                    <g transform="matrix(3.97361,0,0,2.46602,-5002.32,99.0006)">
                        <path d="M1383.61,129.988C1383.61,129.988 1387.75,130.321 1391.31,129.591C1394.86,128.862 1401.25,128.787 1401.25,128.787" style="fill:none;stroke:black;stroke-width:0.27px;"/>
                    </g>
                    <g transform="matrix(3.97361,0,0,2.46602,-5002.32,99.0006)">
                        <path d="M1383.61,129.988C1383.61,129.988 1384.11,132.355 1386.55,132.46C1388.98,132.564 1399.4,132.361 1400.39,132.16" style="fill:none;stroke:black;stroke-width:0.27px;"/>
                    </g>
                    <g transform="matrix(3.97361,0,0,2.46602,-5002.32,99.0006)">
                        <path d="M1404.85,122.622C1404.85,122.622 1399.28,125.351 1393.98,125.073C1388.68,124.795 1385.39,124.033 1384.4,123.729" style="fill:none;stroke:black;stroke-width:0.27px;"/>
                    </g>
                    <g transform="matrix(3.97361,0,0,2.46602,-5002.32,99.0006)">
                        <path d="M1336.72,133.475C1336.72,133.475 1337.01,137.246 1348.14,137.064C1359.28,136.882 1356.16,135.334 1362.01,134.396C1367.85,133.458 1371.26,133.584 1376.38,133.653" style="fill:none;stroke:black;stroke-width:0.27px;"/>
                    </g>
                    <g transform="matrix(3.97361,0,0,2.46602,-5002.32,99.0006)">
                        <path d="M1376.38,133.653L1380.18,133.606C1380.18,133.606 1382.24,135.901 1389.62,135.991C1397.01,136.081 1399.25,135.287 1400.39,134.621" style="fill:none;stroke:black;stroke-width:0.27px;"/>
                    </g>
                    <g transform="matrix(3.97361,0,0,2.46602,-5002.32,99.0006)">
                        <path d="M1380.18,133.606C1380.18,133.606 1383.44,132.523 1386.57,132.488" style="fill:none;stroke:black;stroke-width:0.27px;"/>
                    </g>
                    <g transform="matrix(3.97361,0,0,2.46602,-5002.32,99.0006)">
                        <path d="M1336.89,133.969C1336.89,133.969 1334.66,131.01 1346.21,129.247C1357.75,127.484 1368.83,128.264 1370.64,128.289" style="fill:none;stroke:black;stroke-width:0.27px;"/>
                    </g>
                    <g transform="matrix(1,0,0,0.61619,62.273,205.074)">
                        <path d="M458.631,257.332C458.631,257.332 469.983,253.765 484.371,254.253C498.76,254.741 591.286,261.076 603.15,271.263C615.014,281.45 605.677,295.071 602.739,297.054C600.238,298.742 576.192,308.319 544.67,311.185C539.154,311.687 533.409,311.983 527.511,311.995C487.905,312.079 459.4,304.627 458.226,301.153C456.103,294.87 454.781,285.898 454.808,280.942C454.85,273.248 455.021,265.545 458.631,257.332Z" style="fill:rgb(240,156,0);stroke:black;stroke-width:1.08px;"/>
                    </g>
                    <g transform="matrix(3.97361,0,0,2.46602,-5002.32,99.0006)">
                        <path d="M1404.6,136.963C1404.6,136.963 1401.21,136.992 1400.66,135.382C1400.11,133.772 1399.92,129.093 1404.92,122.588" style="fill:none;stroke:black;stroke-width:0.27px;"/>
                    </g>
                    <g transform="matrix(3.97361,0,0,2.46602,-5002.32,99.0006)">
                        <path d="M1404.92,122.588C1404.92,122.588 1393.56,121.331 1385.31,123.398" style="fill:none;stroke:black;stroke-width:0.27px;"/>
                    </g>
                    <g transform="matrix(3.97361,0,0,2.46602,-5002.32,99.0006)">
                        <path d="M1385.31,123.398L1363.57,130.712L1348.77,132.014" style="fill:none;stroke:black;stroke-width:0.27px;"/>
                    </g>
                    <g transform="matrix(3.97361,0,0,2.46602,-5002.32,99.0006)">
                        <path d="M1362.12,130.923C1362.12,130.923 1362.85,133.409 1365.98,133.023C1369.1,132.637 1387.13,124.433 1387.13,124.433" style="fill:none;stroke:black;stroke-width:0.27px;"/>
                    </g>
                    <g transform="matrix(1,0,0,0.72314,-9.14657,8.19758)">
                        <path d="M658.281,573.942L724.832,565.821L729.554,550.165" style="fill:none;stroke:black;stroke-width:1px;"/>
                    </g>
                    <g transform="matrix(1,0,0,0.72314,-9.14657,8.19758)">
                        <path d="M702.819,460.272C702.819,460.272 732.165,463.206 750.914,457.232" style="fill:none;stroke:black;stroke-width:1px;"/>
                    </g>
                    <g transform="matrix(1,0,0,0.72314,-9.14657,8.19758)">
                        <path d="M714.503,539.844L703.49,535.558L734.391,460.362" style="fill:none;stroke:black;stroke-width:1px;"/>
                    </g>
                    <g transform="matrix(1,0,0,0.72314,-9.14657,8.19758)">
                        <path d="M709.835,537.81L736.483,460.137" style="fill:none;stroke:black;stroke-width:1px;"/>
                    </g>
                </g>
            </g>
        </g>
    </g>
</svg>
