<?xml version="1.0" encoding="UTF-8"?>
<svg width="14px" height="14px" viewBox="0 0 14 14" version="1.1" xmlns="http://www.w3.org/2000/svg" xmlns:xlink="http://www.w3.org/1999/xlink">
    <title>Group</title>
    <g id="Page-1" stroke="none" stroke-width="1" fill="none" fill-rule="evenodd">
        <g id="IPhone-XR-Copy-2" transform="translate(-30.000000, -72.000000)" fill="#FFFFFF" fill-rule="nonzero">
            <g id="Group-2" transform="translate(15.000000, 48.000000)">
                <g id="Group" transform="translate(22.000000, 31.000000) scale(-1, 1) rotate(-90.000000) translate(-22.000000, -31.000000) translate(15.000000, 24.000000)">
                    <path d="M13.6538261,9.35520833 C13.5226445,9.2421875 8.28995315,5.446875 8.28995315,5.446875 C8.28266528,5.43958333 8.27537741,5.43229167 8.27173347,5.42864583 C8.07131702,5.22447917 8.08224883,5.04947917 8.06767309,4.74322917 C8.06767309,4.74322917 8.03487767,2.22760417 7.98750651,1.3890625 C7.94013535,0.550520833 7.50286309,0 6.99271213,0 C6.99271213,0 6.99271213,0 6.99271213,0 C6.99271213,0 6.99271213,0 6.99271213,0 C6.48256117,0 6.04893285,0.546875 6.00156169,1.38541667 C5.95419053,2.22395833 5.92139511,4.73958333 5.92139511,4.73958333 C5.90681936,5.04583333 5.91775117,5.22083333 5.71733472,5.425 C5.71004685,5.43229167 5.70275898,5.43958333 5.69911504,5.44322917 C5.69911504,5.44322917 0.470067673,9.23854167 0.335242061,9.3515625 C0.20041645,9.46458333 0,9.6359375 0,10.0151042 C0,10.4598958 0.131181676,10.5145833 0.386257158,10.4380208 C0.386257158,10.4380208 5.49505466,8.99791667 5.6845393,8.95052083 C5.87402395,8.903125 5.9724102,8.97239583 5.98698594,9.22395833 C6.00156169,9.47552083 6.01613743,10.915625 6.01978136,11.0833333 C6.0234253,11.2510417 5.99791775,11.2546875 5.91410724,11.353125 L4.74804789,12.840625 C4.68610099,12.9135417 4.64966163,13.0046875 4.64966163,13.1067708 C4.64966163,13.1067708 4.64966163,13.3291667 4.64966163,13.5588542 C4.64966163,13.7885417 4.75169183,13.825 4.94846434,13.7375 C5.14523686,13.65 6.1363873,13.103125 6.1363873,13.103125 C6.16189485,13.0921875 6.30400833,13.0338542 6.36959917,13.0338542 C6.52264446,13.0338542 6.661114,13.0302083 6.69026549,13.2598958 C6.73763665,13.6755208 6.86881832,14 7,14 C7,14 7,14 7,14 C7,14 7,14 7,14 C7.13118168,14 7.26236335,13.6755208 7.30973451,13.2598958 C7.33524206,13.0302083 7.47735554,13.0338542 7.63040083,13.0338542 C7.69599167,13.0338542 7.83810515,13.0921875 7.8636127,13.103125 C7.8636127,13.103125 8.85476314,13.65 9.05153566,13.7375 C9.24830817,13.825 9.35033837,13.7885417 9.35033837,13.5588542 C9.35033837,13.3291667 9.35033837,13.1067708 9.35033837,13.1067708 C9.35033837,13.0046875 9.31389901,12.9098958 9.25195211,12.840625 L8.08589276,11.353125 C8.00208225,11.2546875 7.98021864,11.2473958 7.98021864,11.0833333 C7.98021864,10.9192708 7.99843831,9.47552083 8.01301406,9.22395833 C8.0275898,8.97239583 8.12597605,8.903125 8.3154607,8.95052083 C8.50494534,8.99791667 13.6137428,10.4380208 13.6137428,10.4380208 C13.8724623,10.5145833 14,10.4598958 14,10.0151042 C13.9890682,9.63958333 13.7886517,9.46822917 13.6538261,9.35520833 Z" id="Path"></path>
                </g>
            </g>
        </g>
    </g>
</svg>